<?xml version="1.0" encoding="UTF-8" standalone="no"?>
<!DOCTYPE svg PUBLIC "-//W3C//DTD SVG 1.1//EN" "http://www.w3.org/Graphics/SVG/1.1/DTD/svg11.dtd">

<svg width="222px" height="222px" viewBox="0 0 222 222" version="1.1" xmlns="http://www.w3.org/2000/svg">
  <defs></defs>
  <g transform="matrix(1, 0, 0, 1, 2.286089, 0)">
    <path style=" stroke:none;fill-rule:nonzero;fill:rgb(0%,0%,0%);fill-opacity:1;" d="M 109.65625 13.234375 C 105.230469 14.664062 100.757812 19.1875 99.824219 23.175781 C 98.988281 26.617188 99.527344 31.097656 101.003906 33.652344 C 102.871094 36.753906 140.933594 74.492188 143.539062 75.769531 C 144.769531 76.363281 147.03125 77 148.601562 77.148438 C 151.160156 77.347656 151.847656 77.199219 154.652344 75.820312 C 158.242188 74 160.945312 71.246094 162.371094 67.996094 C 163.207031 66.175781 163.304688 65.09375 163.109375 62.042969 C 163.011719 59.976562 162.519531 57.515625 162.027344 56.582031 C 160.847656 54.121094 121.953125 15.5 119.34375 14.171875 C 117.132812 13.039062 111.773438 12.496094 109.65625 13.234375 Z M 109.65625 13.234375 "></path>
    <path style=" stroke:none;fill-rule:nonzero;fill:rgb(0%,0%,0%);fill-opacity:1;" d="M 90.085938 48.367188 L 84.085938 54.367188 L 103.019531 73.3125 L 121.953125 92.253906 L 127.949219 86.203125 L 134 80.199219 L 115.066406 61.257812 L 96.136719 42.3125 Z M 90.085938 48.367188 "></path>
    <path style=" stroke:none;fill-rule:nonzero;fill:rgb(0%,0%,0%);fill-opacity:1;" d="M 71.644531 66.816406 L 65.894531 72.574219 L 84.824219 91.515625 L 103.757812 110.457031 L 109.65625 104.554688 L 115.558594 98.648438 L 96.726562 79.804688 C 86.398438 69.472656 77.84375 61.011719 77.695312 61.011719 C 77.546875 61.011719 74.84375 63.617188 71.644531 66.816406 Z M 71.644531 66.816406 "></path>
    <path style=" stroke:none;fill-rule:nonzero;fill:rgb(0%,0%,0%);fill-opacity:1;" d="M 46.617188 76.214844 C 43.125 77.347656 39.78125 80.394531 37.765625 84.285156 C 36.191406 87.332031 36.242188 92.5 37.863281 95.648438 C 38.699219 97.175781 45.535156 104.503906 58.417969 117.59375 C 80.152344 139.683594 80.496094 139.980469 86.496094 139.882812 C 90.429688 139.882812 92.742188 138.898438 95.742188 136.140625 C 98.988281 133.191406 100.511719 129.894531 100.511719 125.957031 C 100.511719 120.054688 100.414062 120.003906 78.777344 98.257812 C 68.058594 87.480469 58.269531 78.082031 57.089844 77.394531 C 55.46875 76.410156 54.191406 76.066406 51.4375 75.96875 C 49.519531 75.871094 47.355469 76.015625 46.617188 76.214844 Z M 46.617188 76.214844 "></path>
    <path style=" stroke:none;fill-rule:nonzero;fill:rgb(0%,0%,0%);fill-opacity:1;" d="M 125.097656 101.847656 L 115.261719 111.640625 L 148.457031 144.800781 C 170.238281 166.597656 182.386719 178.359375 183.714844 178.996094 C 188.875 181.605469 194.582031 180.671875 198.957031 176.539062 C 202.449219 173.242188 203.777344 170.4375 203.777344 166.304688 C 203.726562 160.152344 204.957031 161.578125 168.519531 125.070312 C 150.375 106.917969 135.375 92.007812 135.226562 92.007812 C 135.082031 92.007812 130.558594 96.4375 125.097656 101.847656 Z M 125.097656 101.847656 "></path>
    <path style=" stroke:none;fill-rule:nonzero;fill:rgb(0%,0%,0%);fill-opacity:1;" d="M 34.816406 162.808594 C 27.832031 165.074219 21.441406 171.667969 19.867188 178.210938 L 19.570312 179.585938 L 117.476562 179.585938 L 116.542969 176.929688 C 114.773438 171.714844 111.035156 167.238281 106.265625 164.628906 C 101.152344 161.875 101.199219 161.875 68.105469 161.925781 C 39.929688 161.925781 37.421875 161.972656 34.816406 162.808594 Z M 34.816406 162.808594 "></path>
    <path style=" stroke:none;fill-rule:nonzero;fill:rgb(0%,0%,0%);fill-opacity:1;" d="M 9.835938 195.183594 C 9.835938 198.679688 10.082031 202.320312 10.328125 203.304688 C 11.359375 206.894531 6.835938 206.648438 68.5 206.648438 L 124.015625 206.648438 L 126.867188 203.796875 L 126.867188 188.9375 L 9.835938 188.9375 Z M 9.835938 195.183594 "></path>
  </g>
</svg>